# xmcd
#
# Track frame offsets:
#	150
#	15443
#	32843
#	49493
#	67193
#	91120
#	110248
#	124843
#	143473
#	163198
#
# Disc length: 2413
#
# Revision: 1
# Processed by: cddbd v1.5.1PL0 Copyright (c) Steve Scherf et al.
# Submitted via: dBpowerAMP V4.0
# Normalized: r0:TRMNUM
#
DISCID=8a096b0a
DTITLE=Veronica Lee - Good Catch
DYEAR=1988
DGENRE=
TTITLE0=Burn it up
TTITLE1=Colour my world blue
TTITLE2=Money can't buy you love
TTITLE3=Good catch
TTITLE4=On the run
TTITLE5=Eleven ways
TTITLE6=The one you love
TTITLE7=Love is foolish game
TTITLE8=Straighten up, fly right
TTITLE9=Nobody knows
EXTD=
EXTT0=
EXTT1=
EXTT2=
EXTT3=
EXTT4=
EXTT5=
EXTT6=
EXTT7=
EXTT8=
EXTT9=
PLAYORDER=
